<svg xmlns="http://www.w3.org/2000/svg" width="18px" height="18px" viewBox="0 0 18 18"><path d="m3.5417,3.6104l-1.7538,4.5807c-.1547.4042.1872.8238.6143.7539l4.8771-.7986c.4271-.0699.6173-.5768.3418-.9105l-3.1233-3.7821c-.2735-.3312-.8025-.2446-.9561.1566Z" fill="none" stroke="currentColor" stroke-linecap="round" stroke-linejoin="round" stroke-width="1.5"></path><circle cx="13.5" cy="4.5" r="2.75" fill="none" stroke="currentColor" stroke-linecap="round" stroke-linejoin="round" stroke-width="1.5" data-color="color-2"></circle><path d="m14.25,12.5167h0c-1.274.9216-2.2147,2.2316-2.681,3.7333h0s0,0,0,0c-.9216-1.274-2.2316-2.2147-3.7333-2.681h0,0c1.274-.9216,2.2147-2.2316,2.681-3.7333h0s0,0,0,0c.9216,1.274,2.2316,2.2147,3.7333,2.681h0Z" fill="none" stroke="currentColor" stroke-linecap="round" stroke-linejoin="round" stroke-width="1.5"></path></svg>